<svg xmlns="http://www.w3.org/2000/svg" xmlns:xlink="http://www.w3.org/1999/xlink" width="500" height="500" viewBox="0 0 375 375"><path d="M0 375h375V0H0z" fill="#fff"/><path d="M0 375h375V0H0z" fill="#fff" data-name="Div"/><clipPath id="a"><path transform="matrix(.1 0 0 -.1 0 375)" d="M592.191 1773.71 1382.5 3066.25l1778.83-1087.64-790.3-1292.54L592.191 1773.71z"/></clipPath><g clip-path="url(#a)"><clipPath id="b"><path transform="matrix(.1 0 0 -.1 0 375)" d="M592.191 1773.71 1382.5 3066.25l1778.83-1087.64-790.3-1292.54L592.191 1773.71z"/></clipPath><g clip-path="url(#b)" fill="#ae8f7d"><path d="M112.403 174.725c1.298-.695 2.291-1.731 2.775-3.027.254-.667.275-1.373.333-2.056.035-.646.407-1.086.802-1.563.933-1.022 1.662-1.963 1.305-3.311-.197-.685-.561-1.266-.886-1.825-.378-.642-.877-1.255-1.564-1.726-.261-.16-.689-.217-.932.097-3.355 4.059-4.542 9.444-3.077 13.934.286.791 1.53.268 1.281-.5-1.34-4.106-.232-9.025 2.797-12.719-.316.012-.617.085-.933.097.986.654 1.69 1.855 2.026 2.985.308 1.009-.712 1.669-1.365 2.4-.311.426-.623.851-.748 1.391-.17.615-.048 1.255-.196 1.832-.286 1.057-1.001 2.058-1.989 2.583-.37.185-.516.507-.428.868.041.436.489.71.799.54"/><path d="M112.004 173.865c-4.017 5.144-9.719 8.59-15.72 10.929a66.668 66.668 0 0 1-9.49 2.926c-1.423.311-3.05.703-3.925-.552-.735-1.065-.295-2.541.891-3.306.605-.4 1.261-.718 1.71-1.368.388-.635.289-1.312.144-1.914-.594-1.801-1.33-3.535-2.007-5.284-.287-.792-1.614-.217-1.282.5.662 1.688 1.302 3.415 1.963 5.103.134.287.318.656.173.978-.123.285-.516.507-.765.662-.664.416-1.208.802-1.672 1.391-.783 1.113-.983 2.532-.429 3.641.621 1.252 1.946 1.857 3.427 1.787 1.624-.137 3.379-.656 4.907-1.056a57.934 57.934 0 0 0 4.927-1.507c3.285-1.174 6.513-2.59 9.504-4.458 3.278-2.001 6.267-4.539 8.689-7.576.503-.823-.49-1.635-1.045-.896"/><path d="M111.106 170.8c-5.118 3.751-11.39 5.359-17.448 5.609-2.999.118-6.13-.051-8.614-1.364-1.28-.68-2.399-1.621-3.102-2.821-.274-.476-.756-1.284-.525-1.913.268-.606 1.067-.99 1.626-1.316 1.874-1.217 4.231-2.805 4.618-5.033.189-1.066-.104-2.015-.54-2.898-.398-.859-1.126-1.767-1.155-2.812-.019-1.397 1.458-1.881 2.634-2.292 1.453-.446 2.766-1.081 3.894-2.086.492-.469.924-.924 1.327-1.499.426-.613.74-1.294 1.151-1.966.48-.785.989-.526 1.633-.235.68.314 1.376.688 2.034 1.039 5.736 3.301 10.21 8.245 12.827 14.21.31.754 1.614.216 1.282-.5-2.522-5.701-6.68-10.657-12.092-14.069-1.21-.791-2.593-1.637-3.986-2.129-1.58-.607-2.582.527-3.247 1.866-.71 1.414-1.818 2.637-3.26 3.399-1.38.747-3.14.853-4.373 1.947-2.293 1.987-.404 4.272.301 6.141.472 1.161.343 2.212-.538 3.316-.835 1.03-1.999 1.757-3.041 2.454-1.172.825-2.576 1.609-2.408 3.098.153 1.429 1.142 2.752 2.08 3.737 2.162 2.092 5.393 2.938 8.585 3.092 7.173.278 15.046-1.429 21.169-5.901.621-.596-.099-1.601-.832-1.074"/><path d="M98.22 150.135c1.864-1.787 3.75-3.612 5.613-5.4.727-.685 1.546-1.52 2.517-1.85.935-.353 1.729.029 2.287.628.558.598.957 1.458 1.304 2.235.441 1.04.944 2.066 1.423 3.13.841 1.9 1.779 3.809 2.499 5.738.779 2.171 1.353 4.422 1.228 6.81-.014.864 1.339.665 1.392-.176.092-4.77-2.044-9.003-3.895-13.113l-1.594-3.44a7.594 7.594 0 0 0-1.537-2.274c-1.505-1.486-3.725-1.046-5.383.406-1.179.921-2.241 2.069-3.271 3.083-1.22 1.154-2.401 2.331-3.621 3.486-.56.581.395 1.37 1.038.737M93.017 182.077c3.302.478 6.635-1.027 9.705-2.436 1.817-.789 3.606-1.698 5.334-2.593 1.585-.828 3.207-1.634 4.115-3.286.419-.771-.742-1.224-1.236-.499-.808 1.406-2.626 2.194-4.044 2.919a101.049 101.049 0 0 1-4.881 2.356c-2.76 1.239-5.807 2.611-8.742 2.203-.84-.052-1.107 1.223-.251 1.336M97.36 172.203c4.608-.315 9.22-1.141 13.806-2.342.866-.241.455-1.416-.388-1.213-4.428 1.195-8.972 1.909-13.483 2.232-.834.106-.845 1.382.064 1.323M101.55 167.113c3.404-.024 6.784-.01 10.203.026.352.01.745-.212.816-.58.062-.27-.137-.699-.528-.733-3.403.024-6.784.011-10.202-.025-.353-.01-.746.211-.817.579-.07.368.152.76.528.733"/><path d="M108.609 154.895c2.031 2.475 3.691 5.133 4.952 8.111.309.754 1.613.217 1.281-.5-1.335-3.024-2.979-5.878-5.122-8.42-.498-.613-1.647.174-1.111.809M170.083 120.029c-.528 2.039-3.705 1.945-5.234 2.345-.889.278-1.636.746-2.482 1.204-.725.43-1.697.76-2.058-.077-.376-.897.354-1.838 1.02-2.508.819-.835 1.832-1.653 2.688-2.465 1.34-1.183 3.154-3.31 5.047-3.384 1.106-.043 1.94.775 2.172 1.739.262 1.084-.093 2.253-.636 3.308-.42.77.816 1.269 1.236.499 1.138-2.283 1.336-5.294-1.043-6.441-2.357-1.184-4.816.907-6.626 2.522-1.196 1.117-2.505 2.166-3.664 3.306-.985.938-1.828 2.065-1.704 3.374.104 1.09.855 1.96 1.989 2.038 1.134.077 2.148-.741 3.076-1.252 1.427-.822 2.989-.689 4.488-1.21 1.371-.394 2.611-1.331 3.006-2.732.233-.885-1.065-1.113-1.275-.266"/><path d="M159.003 123.37c-2.376 2.039-5.205 3.39-8.165 4.199-2.764.826-5.836 1.567-8.621 1.251-1.306-.132-2.587-.556-3.542-1.345-.791-.638-1.825-1.886-1.057-3.059.563-.837 1.65-1.354 2.518-1.85.951-.548 1.873-1.217 2.444-2.151.709-1.159.404-2.424.731-3.713.349-1.327 1.597-2.361 2.951-2.56.858-.143.831-1.443-.026-1.3-1.355.199-2.601.978-3.398 2.03-.927 1.18-.915 2.419-1.106 3.74-.177 1.381-1.085 2.11-2.308 2.851-1.058.637-2.227 1.206-2.942 2.207-1.878 2.651 1.069 5.223 3.286 5.963 2.885.993 6.264.338 9.373-.38 3.772-.878 7.496-2.349 10.507-4.924.748-.467.111-1.524-.645-.959"/><path d="M159.793 119.642c-1.975.795-3.994.485-5.693-.348-.988-.399-1.862-.985-2.736-1.571-.875-.586-1.823-1.217-2.606-1.952-1.186-1.085-2.176-3.076-1.05-4.75 1.049-1.464 3.126-1.837 4.495-2.9.696-.55 1.227-1.252 1.475-2.077.27-.862.247-1.748.788-2.548a4.144 4.144 0 0 1 1.989-1.659c.921-.413 1.851-.255 2.761-.315 1.819-.12 2.957-1.477 4.534-2.208 2.172-1.034 2.381 1.815 2.641 3.155.746 4.154 1.304 8.449-.07 12.795-.285.802 1.036.993 1.344.154 1.388-4.286.899-8.693.19-12.824-.324-1.738-.466-4.444-2.703-4.733-1.907-.242-3.236 1.512-4.85 2.22-1.04.442-2.157.17-3.219.394a5.942 5.942 0 0 0-2.648 1.308c-.765.662-1.328 1.499-1.597 2.361-.302.997-.221 2.124-1.115 2.913-1.477 1.408-3.703 1.69-5.024 3.347-1.284 1.68-.994 3.808.015 5.35.735 1.065 1.825 1.886 2.901 2.646a29.573 29.573 0 0 0 3.364 2.057c2.095 1.024 4.653 1.459 7.096.488.943-.451.532-1.627-.282-1.303"/><path d="M166.905 98.521c-.089-1.03 1.339-1.183 2.077-1.297 1.09-.104 2.143-.23 3.169-.733 1.086-.516 1.873-1.216 2.767-2.005.28-.291.916-.826 1.281-.5.328.303.359 1.092.461 1.514.815 4.041-.254 8.729-1.76 12.788-.869 2.344-2.045 4.604-3.31 6.757-.48.785.704 1.201 1.235.499 2.78-4.463 4.663-9.473 5.306-14.472.283-2.394.441-5.173-.412-7.389-.427-.98-1.439-1.342-2.502-.863-.573.266-1.005.721-1.452 1.115-.515.507-1.18.922-1.822 1.3-1.41.627-2.768.413-4.184.881-1.093.36-2.138 1.313-2.08 2.478-.023.961 1.354.725 1.226-.073"/><path d="M170.946 113.83c.616-2.602 1.179-5.287 1.599-7.906.048-.33-.136-.7-.527-.733-.39-.034-.746.212-.816.579a223.923 223.923 0 0 1-1.599 7.906c-.15.833 1.156.964 1.343.154M165.59 115.536c-1.777-2.216-3.637-4.381-5.46-6.522-.253-.258-.561-.343-.916-.098-.272.193-.411.672-.21.847a124.237 124.237 0 0 1 5.46 6.522c.476.651 1.624-.137 1.126-.749"/><path d="M164.853 115.65c-3.425-.194-6.671-1.1-9.49-2.619-.322-.145-.752.054-.898.376-.168.359.002.668.324.814 2.932 1.587 6.336 2.487 9.835 2.727.826-.009 1.107-1.223.229-1.298M159.041 121.545c-2.271 1.025-4.642 1.628-7.052 2.209-1.181.253-2.28.455-3.451.355-1.074-.092-2.085-.454-3.105-.718-.787-.224-1.458.957-.656 1.242 1.071.347 2.166.657 3.352.817 1.185.161 2.396.028 3.638-.24 2.544-.549 5.157-1.212 7.556-2.364.943-.45.555-1.663-.282-1.301M114.959 170.126c2.177 2.82 5.356 4.508 8.467 6.307 1.667.968 3.26 1.89 4.684 3.172 1.485 1.267 2.803 2.638 4.242 3.98 5.532 5.231 12.864 8.02 20.175 10.59 13.012 4.67 26.332 8.5 39.987 11.612 5.828 1.304 11.68 2.315 17.5 3.46 9.437 1.867 18.495 4.941 26.982 8.949 12.042 5.668 22.949 13.108 32.909 21.509 1.47 1.206 2.895 2.488 4.282 3.747.581.561 1.499-.521.895-1.045-10.045-9.017-21.075-17.096-33.3-23.389-8.76-4.484-18.093-8.033-27.946-10.31-5.474-1.293-11.148-2.092-16.713-3.235-12.825-2.707-25.472-6.127-37.744-10.241-3.747-1.264-7.568-2.573-11.237-4.046-3.542-1.345-7.069-2.884-10.2-4.902-3.355-2.154-5.863-5.023-8.833-7.557-2.767-2.36-6.218-3.854-9.289-5.886-1.51-.974-2.831-2.089-3.871-3.496-.355-.679-1.526.145-.99.781"/><path d="M167.16 196.446c-7.578-4.067-13.085-11.184-14.969-19.525-.457-2.025-.672-4.108-.121-6.184.536-2.137 1.799-4.035 2.89-5.987 1.953-3.53 3.217-7.276 3.662-11.112.487-4.323.027-8.61-1.511-12.477-.393.222-.785.444-1.238.681 1.133 1.925 2.29 3.813 3.423 5.739 1.067 1.782 2.292 3.558 2.846 5.591.525 1.913.298 3.88-.087 5.852-.384 1.973-.844 3.9-1.205 5.836-.718 4.028-.773 7.897.458 11.679s3.238 7.218 4.145 11.11c.933 4.268.957 9.52 5.417 11.631.719.337 1.39-.845.657-1.242-3.809-1.917-3.843-6.817-4.571-10.497-.786-3.921-2.756-7.334-4.032-11.041-.646-1.884-1.096-3.75-1.102-5.757a28.861 28.861 0 0 1 .546-5.931c.67-3.698 2.093-7.706 1.462-11.378-.394-2.295-1.745-4.2-2.818-6.139-1.312-2.138-2.527-4.267-3.839-6.404-.363-.582-1.435-.005-1.238.681 2.773 7.138 1.959 15.524-2.144 22.823-1.114 1.989-2.339 3.91-2.861 6.107-.468 2.025-.327 4.062.017 6.018.799 4.237 2.621 8.227 5.079 11.681a31.914 31.914 0 0 0 10.741 9.392c.515.417 1.088-.773.393-1.147M169.41 122.39c3.371 5.656 6.765 11.274 10.136 16.93 3.09 5.278 6.072 10.645 7.766 16.61.861 3.042 1.24 6.201 1.574 9.435.364 3.098.781 6.28 1.484 9.329a91.652 91.652 0 0 0 5.959 17.969c.745 1.637 1.573 3.222 2.59 4.665 1.055 1.467 2.284 2.732 3.536 3.959 2.676 2.51 5.542 4.878 8.309 7.238.582.561 1.56-.536.896-1.045-2.455-2.116-4.931-4.196-7.363-6.35-2.408-2.192-4.568-4.539-6.045-7.496-1.45-2.838-2.574-5.785-3.616-8.784-1.027-2.939-1.949-5.967-2.652-9.016-.741-3.072-1.255-6.261-1.634-9.42-.38-3.159-.639-6.347-1.387-9.321-1.415-6-4.233-11.471-7.284-16.726-3.674-6.252-7.469-12.474-11.204-18.712-.346-.777-1.48.07-1.065.735"/><path d="M216.025 208.404c-2.045-2.535-4.127-5.092-5.749-7.983a24.533 24.533 0 0 1-3.003-9.282c-.416-3.181-.411-6.465-.685-9.713-.198-3.202-.615-6.384-1.31-9.53-.79-3.41-1.942-6.734-3.773-9.701-.341.305-.682.61-1.045.952 3.58 2.292 7.458 4.766 9.146 8.725.789 1.817 1.185 3.857 1.928 5.749.772 2.012 2.066 3.676 3.299 5.354 1.293 1.664 2.308 3.363 2.945 5.345.646 1.884 1.027 3.862 1.613 5.761.622 1.921 1.563 3.574 2.804 5.155 1.182 1.595 2.196 3.294 2.925 5.126 1.553 3.928 2.627 8.384 6.325 10.902.65.449 1.583-.572.896-1.044-3.287-2.266-4.366-6.213-5.697-9.747-.714-1.772-1.488-3.529-2.572-5.116-1.21-1.716-2.474-3.259-3.186-5.286-.668-1.846-1.036-3.766-1.583-5.641-.577-1.996-1.487-3.784-2.682-5.44-1.271-1.701-2.685-3.336-3.6-5.282-.789-1.817-1.185-3.856-1.891-5.726-1.795-4.538-5.784-7.336-9.789-9.939-.598-.366-1.423.311-1.082.93 3.29 5.452 4.348 11.953 4.843 18.366.236 3.225.291 6.494.624 9.727.357 3.196 1.195 6.277 2.644 9.114 1.685 3.29 3.998 6.142 6.334 8.956.708.69 1.871-.037 1.321-.732M274.448 241.764c-8.877-3.118-17.914-5.973-27.035-8.777-3.866-1.234-7.891-2.463-12.09-2.566-4.222-.065-8.44 1.207-12.532 2.608-4.234 1.467-8.395 2.98-12.613 4.252a240.893 240.893 0 0 1-12.922 3.499 211.312 211.312 0 0 1-25.906 4.494 211.714 211.714 0 0 1-26 1.203 62.665 62.665 0 0 1-3.214-.118c-.865-.014-1.168 1.238-.29 1.313 4.071.229 8.092-1.728 11.374-4.24 2.042-1.576 3.951-3.438 6.148-4.765 2.198-1.326 4.638-2.042 7.027-2.841 4.671-1.509 9.379-2.995 14.118-3.692 4.355-.572 8.75-.452 13.094-1.596 2.335-.626 4.441-1.803 6.763-2.745 2.322-.943 4.729-1.268 7.105-1.459 4.737-.441 9.427-.552 14.12-.25 8.568.515 16.954 2.253 24.92 4.762 8.017 2.591 15.736 5.924 23.097 9.758.906.451 1.826.962 2.708 1.45.733.397 1.329-.831.657-1.242-7.354-3.931-14.958-7.451-22.982-10.2-7.866-2.756-16.174-4.703-24.695-5.549a96.934 96.934 0 0 0-13.619-.317c-2.368.093-4.781.261-7.174.647-1.159.216-2.294.394-3.372.813a34.864 34.864 0 0 0-3.431 1.497 24.072 24.072 0 0 1-6.667 2.085c-2.212.342-4.385.452-6.565.659-4.729.344-9.336 1.327-13.901 2.746a560.947 560.947 0 0 0-7.013 2.233c-2.412.836-4.621 1.847-6.663 3.423-1.936 1.487-3.716 3.222-5.779 4.58-1.753 1.188-3.707 2.201-5.807 2.611-1.001.21-1.994.322-3.03.253-.116.443-.21.847-.289 1.312 8.51.275 17.1.083 25.739-.693a215.489 215.489 0 0 0 25.925-4.021c8.536-1.867 17.016-4.23 25.328-7.159 4.175-1.453 8.351-3.161 12.729-3.77 4.378-.61 8.444.131 12.394 1.313 8.942 2.592 17.738 5.505 26.504 8.554 1.086.407 2.255.763 3.341 1.17.666.254 1.24-.936.498-1.235"/></g></g><clipPath id="c"><path transform="matrix(.1 0 0 -.1 0 375)" d="M775.199 1004.4h2200.8v1742.4h-2200.8z"/></clipPath><g clip-path="url(#c)"><clipPath id="d"><path transform="matrix(.1 0 0 -.1 0 375)" d="M775.2 1004.4H2976v1742.4H775.2z"/></clipPath><g data-name="H1" clip-path="url(#d)"><g data-name="NonStruct"><clipPath id="e"><path transform="matrix(.1 0 0 -.1 0 375)" d="M775.199 1004.4h2200.8v1742.4h-2200.8z"/></clipPath><g clip-path="url(#e)"><symbol id="f"><path d="M.705.38.708.379.709.377C.709.375.708.374.705.374A.046.046 0 0 1 .671.36.046.046 0 0 1 .657.326v-.05A.072.072 0 0 0 .635.223.07.07 0 0 0 .584.202a.075.075 0 0 0-.027.005L.556.208H.555A.074.074 0 0 1 .51.212.073.073 0 0 1 .47.191.075.075 0 0 1 .447.136c0-.022.008-.04.023-.055A.08.08 0 0 1 .515.058a.079.079 0 0 1 .058.016.035.035 0 0 1 .007.007h.005C.587.079.587.077.585.076A.353.353 0 0 0 .365 0a.364.364 0 0 0-.293.149.362.362 0 0 0-.016.4.358.358 0 0 0 .225.164.362.362 0 0 0 .376-.142L.656.569.623.545.621.544c-.001 0-.002 0-.003.002A.373.373 0 0 1 .27.697.271.271 0 0 1 .156.648.36.36 0 0 1 .014.416.347.347 0 0 1 .076.155l.03.022.003.001.002-.002A.377.377 0 0 1 .236.064C.286.037.336.023.389.02a.278.278 0 0 1 .147.032.082.082 0 0 0-.071.024.082.082 0 0 0-.025.06c0 .023.008.043.025.06.012.012.026.02.043.023A.083.083 0 0 0 .557.214h.001L.56.213A.048.048 0 0 1 .584.209C.593.209.6.213.606.22c.007.007.01.014.011.023v.083A.046.046 0 0 1 .603.36a.046.046 0 0 1-.034.014C.566.374.565.375.565.377S.566.38.569.38h.136z"/></symbol><symbol id="g"><path d="M.366.332A.198.198 0 0 0 .442.267.146.146 0 0 0 .438.09.23.23 0 0 0 .353.024.283.283 0 0 0 .235 0a.29.29 0 0 0-.119.024.23.23 0 0 0-.085.066A.152.152 0 0 0 0 .182c0 .001 0 .002.002.003L.005.184l.027-.02.001-.003C.033.133.042.107.06.084A.2.2 0 0 1 .133.028.243.243 0 0 1 .235.007a.24.24 0 0 1 .101.021.19.19 0 0 1 .073.056.123.123 0 0 1 .003.15.169.169 0 0 1-.067.056L.108.412a.19.19 0 0 0-.07.061.139.139 0 0 0 .005.165C.063.664.09.685.123.7a.27.27 0 0 0 .112.023C.275.723.313.715.346.7A.207.207 0 0 0 .427.638a.138.138 0 0 0 .03-.086c0-.001 0-.002-.002-.003H.451L.424.57.423.573c0 .026-.009.05-.026.072a.169.169 0 0 1-.068.052.216.216 0 0 1-.094.02.223.223 0 0 1-.095-.02.178.178 0 0 1-.068-.052.117.117 0 0 1-.004-.139.16.16 0 0 1 .058-.051l.24-.123z"/></symbol><use xlink:href="#f" transform="matrix(163.241 0 0 -163.241 84.815 231.691)"/><use xlink:href="#g" transform="matrix(163.241 0 0 -163.241 212.632 231.854)"/></g></g></g><g data-name="P"><symbol id="h"><path d="M0 .7h.27A.216.216 0 0 0 .349.686.174.174 0 0 0 .41.647.164.164 0 0 0 .45.59.167.167 0 0 0 .465.52a.166.166 0 0 0-.04-.114.135.135 0 0 0-.04-.031c.02-.01.04-.023.057-.039a.219.219 0 0 0 .04-.054A.17.17 0 0 0 .5.2.2.2 0 0 0 .441.057.195.195 0 0 0 .373.015.244.244 0 0 0 .285 0H0v.7M.285.07c.043 0 .077.012.102.036A.126.126 0 0 1 .425.2a.141.141 0 0 1-.038.098.129.129 0 0 1-.044.03.137.137 0 0 1-.058.012h-.21V.07h.21M.27.406c.038 0 .067.01.088.03C.379.456.39.485.39.52.39.553.38.579.358.599.338.619.308.63.27.63H.075V.406H.27z"/></symbol><symbol id="i"><path d="M0 .7h.48V.63H.075V.4H.4V.33H.075V.07H.49V0H0v.7z"/></symbol><symbol id="j"><path d="M.29.7h.07L.65 0H.57L.49.195H.16L.08 0H0l.29.7M.46.265l-.135.33L.19.265h.27z"/></symbol><symbol id="k"><path d="M.285 0a.284.284 0 0 0-.263.173A.284.284 0 0 0 0 .285V.71h.075V.285A.213.213 0 0 1 .135.13a.204.204 0 0 1 .15-.06.212.212 0 0 1 .15.06.213.213 0 0 1 .06.155V.71H.57V.285A.284.284 0 0 0 .397.022.284.284 0 0 0 .285 0z"/></symbol><symbol id="l"><path d="M.22.63H0V.7h.515V.63h-.22V0H.22v.63z"/></symbol><symbol id="m"><path d="M.26.245 0 .7h.085l.21-.375H.3L.51.7h.085L.335.245V0H.26v.245z"/></symbol><symbol id="n"><path d="M0 0z"/></symbol><symbol id="o"><path d="M.235 0a.313.313 0 0 0-.178.052A.242.242 0 0 0 0 .105l.045.051A.232.232 0 0 1 .235.07c.053 0 .092.012.119.036A.121.121 0 0 1 .395.2a.085.085 0 0 1-.017.055.13.13 0 0 1-.043.037.275.275 0 0 1-.06.025 4.488 4.488 0 0 1-.07.022 1.078 1.078 0 0 0-.07.024.186.186 0 0 0-.104.088.176.176 0 0 0-.016.079.176.176 0 0 0 .06.133A.262.262 0 0 0 .24.72.257.257 0 0 0 .329.706.263.263 0 0 0 .445.63L.395.58A.2.2 0 0 1 .24.65.19.19 0 0 1 .176.64.14.14 0 0 1 .129.613.107.107 0 0 1 .09.53C.09.5.1.477.118.46a.235.235 0 0 1 .07-.04C.217.41.248.4.28.391A.437.437 0 0 0 .371.356.195.195 0 0 0 .442.298.156.156 0 0 0 .47.2.2.2 0 0 0 .454.12.174.174 0 0 0 .409.057.21.21 0 0 0 .335.015.31.31 0 0 0 .235 0z"/></symbol><symbol id="p"><path d="M0 .7h.22A.362.362 0 0 0 .479.596.346.346 0 0 0 .585.35.333.333 0 0 0 .479.104.365.365 0 0 0 .22 0H0v.7M.22.07a.297.297 0 0 1 .207.082.275.275 0 0 1 .061.307.275.275 0 0 1-.153.149A.297.297 0 0 1 .22.63H.075V.07H.22z"/></symbol><symbol id="q"><path d="M0 .7h.075V0H0v.7z"/></symbol><symbol id="r"><path d="M.36 0A.357.357 0 0 0 0 .36a.35.35 0 0 0 .105.255.362.362 0 0 0 .51 0A.36.36 0 0 0 .692.219.362.362 0 0 0 .36 0m0 .07a.284.284 0 0 1 .202.083.28.28 0 0 1 .083.207.297.297 0 0 1-.083.207A.272.272 0 0 1 .36.65.284.284 0 0 1 .157.567.29.29 0 0 1 .075.36.297.297 0 0 1 .157.153.284.284 0 0 1 .36.07z"/></symbol><use xlink:href="#h" transform="matrix(15.9975 0 0 -15.9975 85.686 273.918)" fill="#ae8f7d"/><use xlink:href="#i" transform="matrix(15.9975 0 0 -15.9975 103.027 273.918)" fill="#ae8f7d"/><use xlink:href="#j" transform="matrix(15.9975 0 0 -15.9975 118.61 273.918)" fill="#ae8f7d"/><use xlink:href="#k" transform="matrix(15.9975 0 0 -15.9975 137.55 274.078)" fill="#ae8f7d"/><use xlink:href="#l" transform="matrix(15.9975 0 0 -15.9975 155.212 273.918)" fill="#ae8f7d"/><use xlink:href="#m" transform="matrix(15.9975 0 0 -15.9975 170.793 273.918)" fill="#ae8f7d"/><use xlink:href="#n" transform="matrix(15.9975 0 0 -15.9975 187.335 273.918)" fill="#ae8f7d"/><use xlink:href="#o" transform="matrix(15.9975 0 0 -15.9975 198.118 274.078)" fill="#ae8f7d"/><use xlink:href="#l" transform="matrix(15.9975 0 0 -15.9975 213.46 273.918)" fill="#ae8f7d"/><use xlink:href="#k" transform="matrix(15.9975 0 0 -15.9975 230.242 274.078)" fill="#ae8f7d"/><use xlink:href="#p" transform="matrix(15.9975 0 0 -15.9975 249.263 273.918)" fill="#ae8f7d"/><use xlink:href="#q" transform="matrix(15.9975 0 0 -15.9975 267.964 273.918)" fill="#ae8f7d"/><use xlink:href="#r" transform="matrix(15.9975 0 0 -15.9975 278.507 274.078)" fill="#ae8f7d"/></g></g><path d="M59.216 306.304h256.568V68.696H59.216z" fill="none" data-name="Image"/></svg>